<?xml version="1.0" encoding="utf-8"?>
<!-- Generator: Adobe Illustrator 27.4.1, SVG Export Plug-In . SVG Version: 6.00 Build 0)  -->
<svg version="1.1" id="Capa_2_00000042716625166700606490000011848063712818680202_"
	 xmlns="http://www.w3.org/2000/svg" xmlns:xlink="http://www.w3.org/1999/xlink" x="0px" y="0px" viewBox="0 0 100.9 103.8"
	 style="enable-background:new 0 0 100.9 103.8;" xml:space="preserve">
<style type="text/css">
	.st0{fill:url(#SVGID_1_);}
	.st1{fill:#333333;}
	.st2{fill:url(#SVGID_00000147200725858112740760000001930870368676319924_);}
	.st3{fill:url(#SVGID_00000054242117903648660880000006622639589363732353_);}
	.st4{fill:url(#SVGID_00000183947423956737593160000010641158028484892040_);}
</style>
<g>
	
		<linearGradient id="SVGID_1_" gradientUnits="userSpaceOnUse" x1="0.475" y1="54.105" x2="100.475" y2="54.105" gradientTransform="matrix(1 0 0 -1 0 106)">
		<stop  offset="0" style="stop-color:#53FFC2"/>
		<stop  offset="0.14" style="stop-color:#46F5BD"/>
		<stop  offset="0.71" style="stop-color:#1AD0AE"/>
		<stop  offset="1" style="stop-color:#0AC3A8"/>
	</linearGradient>
	<path class="st0" d="M96.5,5.9v92h-92v-92H96.5 M100.5,1.9H0.5v100h100V1.9L100.5,1.9z"/>
	<g>
		<path class="st1" d="M21.5,87.6c0.3-0.5,0.6-0.9,1.1-1.2c0.5-0.3,1-0.4,1.6-0.4c0.8,0,1.4,0.2,1.9,0.6c0.5,0.4,0.9,0.9,1.1,1.6
			h-1.7c-0.1-0.3-0.3-0.5-0.5-0.6s-0.5-0.2-0.8-0.2c-0.5,0-0.9,0.2-1.2,0.5s-0.4,0.8-0.4,1.3c0,0.6,0.1,1,0.4,1.3
			c0.3,0.3,0.7,0.5,1.2,0.5c0.3,0,0.6-0.1,0.8-0.2s0.4-0.3,0.5-0.6h1.7c-0.2,0.7-0.5,1.2-1.1,1.6c-0.5,0.4-1.2,0.6-1.9,0.6
			c-0.6,0-1.2-0.1-1.6-0.4c-0.5-0.3-0.9-0.7-1.1-1.1c-0.3-0.5-0.4-1.1-0.4-1.7S21.2,88.1,21.5,87.6z"/>
		<path class="st1" d="M32.1,92.5l-1.3-2.4h-0.4v2.4h-1.5v-6.4h2.6c0.5,0,0.9,0.1,1.3,0.3c0.4,0.2,0.6,0.4,0.8,0.7s0.3,0.6,0.3,1
			c0,0.4-0.1,0.8-0.4,1.1s-0.6,0.6-1,0.7l1.5,2.5H32.1L32.1,92.5z M30.4,89h1c0.3,0,0.5-0.1,0.6-0.2c0.1-0.1,0.2-0.3,0.2-0.6
			s-0.1-0.4-0.2-0.6c-0.1-0.1-0.4-0.2-0.6-0.2h-1L30.4,89L30.4,89z"/>
		<path class="st1" d="M37,87.4v1.3H39v1.2H37v1.4h2.3v1.2h-3.9v-6.4h3.9v1.2L37,87.4L37,87.4z"/>
		<path class="st1" d="M44.9,91.3h-2.4l-0.4,1.1h-1.6l2.3-6.3h1.8l2.3,6.3h-1.6L44.9,91.3z M44.5,90.1l-0.8-2.3l-0.8,2.3H44.5
			L44.5,90.1z"/>
		<path class="st1" d="M52.9,86.1v1.2h-1.7v5.1h-1.5v-5.1h-1.7v-1.2H52.9z"/>
		<path class="st1" d="M55.8,86.1v6.3h-1.5v-6.3H55.8z"/>
		<path class="st1" d="M63.6,86.1l-2.2,6.3h-1.9l-2.2-6.3h1.7l1.6,4.8l1.6-4.8C61.9,86.1,63.6,86.1,63.6,86.1z"/>
		<path class="st1" d="M66.2,92.1c-0.5-0.3-0.9-0.7-1.2-1.2s-0.4-1.1-0.4-1.7c0-0.6,0.2-1.2,0.4-1.7c0.3-0.5,0.7-0.9,1.2-1.2
			c0.5-0.3,1-0.4,1.6-0.4s1.1,0.1,1.6,0.4s0.9,0.7,1.2,1.2c0.3,0.5,0.4,1.1,0.4,1.7s-0.2,1.2-0.4,1.7c-0.3,0.5-0.7,0.9-1.2,1.2
			c-0.5,0.3-1,0.4-1.6,0.4S66.7,92.4,66.2,92.1z M69.1,90.6c0.3-0.3,0.5-0.8,0.5-1.3s-0.2-1-0.5-1.3c-0.3-0.3-0.7-0.5-1.2-0.5
			s-0.9,0.2-1.2,0.5c-0.3,0.3-0.5,0.8-0.5,1.4c0,0.6,0.2,1,0.5,1.3c0.3,0.3,0.7,0.5,1.2,0.5S68.8,90.9,69.1,90.6z"/>
		<path class="st1" d="M73.7,92.3c-0.4-0.1-0.7-0.4-0.9-0.7c-0.2-0.3-0.3-0.6-0.3-1.1h1.7c0,0.2,0.1,0.4,0.2,0.5
			c0.1,0.1,0.3,0.2,0.5,0.2s0.4-0.1,0.5-0.2s0.2-0.2,0.2-0.4c0-0.2-0.1-0.3-0.2-0.4c-0.1-0.1-0.2-0.2-0.4-0.2
			c-0.2-0.1-0.4-0.1-0.7-0.2c-0.4-0.1-0.7-0.2-1-0.4c-0.3-0.1-0.5-0.3-0.7-0.6c-0.2-0.2-0.3-0.6-0.3-1c0-0.6,0.2-1.1,0.6-1.4
			c0.4-0.3,1-0.5,1.7-0.5s1.3,0.2,1.7,0.5s0.7,0.8,0.7,1.4h-1.7c0-0.2-0.1-0.4-0.2-0.5c-0.1-0.1-0.3-0.2-0.5-0.2
			c-0.2,0-0.3,0.1-0.4,0.1c-0.1,0.1-0.2,0.2-0.2,0.4c0,0.2,0.1,0.4,0.3,0.5c0.2,0.1,0.5,0.2,0.9,0.4c0.4,0.1,0.7,0.3,1,0.4
			s0.5,0.3,0.7,0.6s0.3,0.6,0.3,0.9c0,0.4-0.1,0.7-0.3,1c-0.2,0.3-0.4,0.5-0.8,0.7c-0.3,0.2-0.8,0.3-1.2,0.3S74,92.4,73.7,92.3
			L73.7,92.3z"/>
	</g>
	
		<linearGradient id="SVGID_00000006679834188573101470000013775083328458409646_" gradientUnits="userSpaceOnUse" x1="50.5266" y1="72.9961" x2="76.2566" y2="35.5661" gradientTransform="matrix(1 0 0 -1 0 106)">
		<stop  offset="0" style="stop-color:#53FFC2"/>
		<stop  offset="0.14" style="stop-color:#46F5BD"/>
		<stop  offset="0.71" style="stop-color:#1AD0AE"/>
		<stop  offset="1" style="stop-color:#0AC3A8"/>
	</linearGradient>
	<path style="fill:url(#SVGID_00000006679834188573101470000013775083328458409646_);" d="M62.7,81c-4.5,0-8.2-3.7-8.2-8.2V11.4h6.3
		v61.3c0,1.1,0.9,1.9,2,1.9C62.7,74.7,62.7,81,62.7,81z"/>
	
		<linearGradient id="SVGID_00000075137548611422277750000000767471450324762553_" gradientUnits="userSpaceOnUse" x1="67.1908" y1="69.3321" x2="91.1208" y2="33.9521" gradientTransform="matrix(1 0 0 -1 0 106)">
		<stop  offset="0" style="stop-color:#53FFC2"/>
		<stop  offset="0.14" style="stop-color:#46F5BD"/>
		<stop  offset="0.71" style="stop-color:#1AD0AE"/>
		<stop  offset="1" style="stop-color:#0AC3A8"/>
	</linearGradient>
	<path style="fill:url(#SVGID_00000075137548611422277750000000767471450324762553_);" d="M76.8,81c-4.5,0-8.2-3.7-8.2-8.2V11.4h6.3
		v61.3c0,1.1,0.9,1.9,1.9,1.9V81z"/>
	
		<linearGradient id="SVGID_00000091014204274992986240000007412021583783139214_" gradientUnits="userSpaceOnUse" x1="19.7622" y1="76.1217" x2="56.0922" y2="37.1417" gradientTransform="matrix(1 0 0 -1 0 106)">
		<stop  offset="0" style="stop-color:#53FFC2"/>
		<stop  offset="0.14" style="stop-color:#46F5BD"/>
		<stop  offset="0.71" style="stop-color:#1AD0AE"/>
		<stop  offset="1" style="stop-color:#0AC3A8"/>
	</linearGradient>
	<path style="fill:url(#SVGID_00000091014204274992986240000007412021583783139214_);" d="M48.7,11.4H35c-7.6,0-13.8,6.2-13.8,11.3
		v58.2l6.3-0.2V67.1c0-0.1,0.1-0.2,0.2-0.2h14.8c0.1,0,0.2,0.1,0.2,0.2v13.6c0,0.1,0.1,0.2,0.2,0.2h5.9c0.1,0,0.2-0.1,0.2-2.7V12.1
		v2.5v-3C48.8,11.5,48.8,11.4,48.7,11.4L48.7,11.4z M27.4,60.7V25.3c0-4.2,3.4-7.6,7.6-7.6h7.5v43H27.4z"/>
</g>
</svg>
