<?xml version="1.0" encoding="utf-8"?>
<!-- Generator: Adobe Illustrator 27.4.1, SVG Export Plug-In . SVG Version: 6.00 Build 0)  -->
<svg version="1.1" id="Capa_2_00000042716625166700606490000011848063712818680202_"
	 xmlns="http://www.w3.org/2000/svg" xmlns:xlink="http://www.w3.org/1999/xlink" x="0px" y="0px" viewBox="0 0 100.9 103.8"
	 style="enable-background:new 0 0 100.9 103.8;" xml:space="preserve">
<style type="text/css">
	.st0{fill:url(#SVGID_1_);}
	.st1{fill:url(#SVGID_00000161595744830221392250000006866286193892895932_);}
	.st2{fill:url(#SVGID_00000091009427794269187400000000661567530215832207_);}
	.st3{fill:url(#SVGID_00000142870477359439233870000017111363942530793639_);}
</style>
<g>
	
		<linearGradient id="SVGID_1_" gradientUnits="userSpaceOnUse" x1="0.475" y1="54.105" x2="100.475" y2="54.105" gradientTransform="matrix(1 0 0 -1 0 106)">
		<stop  offset="0" style="stop-color:#53FFC2"/>
		<stop  offset="0.14" style="stop-color:#46F5BD"/>
		<stop  offset="0.71" style="stop-color:#1AD0AE"/>
		<stop  offset="1" style="stop-color:#0AC3A8"/>
	</linearGradient>
	<path class="st0" d="M96.5,5.9v92h-92v-92H96.5 M100.5,1.9H0.5v100h100V1.9L100.5,1.9z"/>
	<g>
		
			<linearGradient id="SVGID_00000018235649755912488830000007503691526238137768_" gradientUnits="userSpaceOnUse" x1="52.3003" y1="69.7748" x2="82.8653" y2="25.3114" gradientTransform="matrix(1 0 0 -1 0 106)">
			<stop  offset="0" style="stop-color:#53FFC2"/>
			<stop  offset="0.14" style="stop-color:#46F5BD"/>
			<stop  offset="0.71" style="stop-color:#1AD0AE"/>
			<stop  offset="1" style="stop-color:#0AC3A8"/>
		</linearGradient>
		<path style="fill:url(#SVGID_00000018235649755912488830000007503691526238137768_);" d="M66.8,93.2c-5.4,0-9.8-4.4-9.8-9.8V10.6
			h7.4v72.8c0,1.3,1,2.3,2.3,2.3C66.8,85.8,66.8,93.2,66.8,93.2z"/>
		
			<linearGradient id="SVGID_00000136373279635340922850000000628380863983621511_" gradientUnits="userSpaceOnUse" x1="72.0959" y1="65.4224" x2="100.5225" y2="23.3941" gradientTransform="matrix(1 0 0 -1 0 106)">
			<stop  offset="0" style="stop-color:#53FFC2"/>
			<stop  offset="0.14" style="stop-color:#46F5BD"/>
			<stop  offset="0.71" style="stop-color:#1AD0AE"/>
			<stop  offset="1" style="stop-color:#0AC3A8"/>
		</linearGradient>
		<path style="fill:url(#SVGID_00000136373279635340922850000000628380863983621511_);" d="M83.5,93.2c-5.4,0-9.8-4.4-9.8-9.8V10.6
			h7.4v72.8c0,1.3,1,2.3,2.3,2.3V93.2z"/>
		
			<linearGradient id="SVGID_00000101816080633184970390000015767124260101702325_" gradientUnits="userSpaceOnUse" x1="15.755" y1="73.4878" x2="58.9118" y2="27.1831" gradientTransform="matrix(1 0 0 -1 0 106)">
			<stop  offset="0" style="stop-color:#53FFC2"/>
			<stop  offset="0.14" style="stop-color:#46F5BD"/>
			<stop  offset="0.71" style="stop-color:#1AD0AE"/>
			<stop  offset="1" style="stop-color:#0AC3A8"/>
		</linearGradient>
		<path style="fill:url(#SVGID_00000101816080633184970390000015767124260101702325_);" d="M50.1,10.6H33.9c-9,0-16.4,7.4-16.4,13.4
			v69.1l7.4-0.2V76.8c0-0.1,0.1-0.2,0.2-0.2h17.6c0.1,0,0.2,0.1,0.2,0.2V93c0,0.1,0.1,0.2,0.2,0.2h7.1c0.1,0,0.2-0.1,0.2-3.1V11.4v3
			v-3.5C50.3,10.7,50.2,10.6,50.1,10.6L50.1,10.6z M24.9,69.2V27c0-5,4-9,9-9h9v51.1H24.9z"/>
	</g>
</g>
</svg>
